<?xml version="1.0" encoding="UTF-8"?>
<svg width="450px" height="50px" viewBox="0 0 450 50" version="1.1" xmlns="http://www.w3.org/2000/svg" xmlns:xlink="http://www.w3.org/1999/xlink">
    <!-- Generator: Sketch 57.1 (83088) - https://sketch.com -->
    <title>Group 38</title>
    <desc>Created with Sketch.</desc>
    <defs>
        <polygon id="path-1" points="0 0.640277778 53.5517676 0.640277778 53.5517676 49.9998611 0 49.9998611"></polygon>
        <polygon id="path-3" points="0.0195847095 0.954444444 29.2487982 0.954444444 29.2487982 34.6252778 0.0195847095 34.6252778"></polygon>
    </defs>
    <g id="Page-1" stroke="none" stroke-width="1" fill="none" fill-rule="evenodd">
        <g id="Group-38">
            <polygon id="Fill-1" fill="#FEFEFE" points="39 5 46 5 46 2 39 2"></polygon>
            <polygon id="Fill-2" fill="#FEFEFE" points="39 5 46 5 46 2 39 2"></polygon>
            <g id="Group-37">
                <path d="M40.0905899,14.5445833 C41.6242657,16.8820833 42.5207489,19.6779167 42.5207489,22.6834722 C42.5207489,26.0834722 41.3732505,29.2168056 39.452018,31.7195833 L51.6800486,31.7195833 L51.6800486,14.5445833 L40.0905899,14.5445833 Z" id="Fill-3" fill="#EC6E1E"></path>
                <path d="M13.1145835,22.6831944 C13.1145835,19.6776389 14.0110667,16.8818056 15.5447425,14.5443056 L1.87406361,14.5443056 L1.87406361,31.7193056 L16.1833144,31.7193056 C14.262082,29.2165278 13.1145835,26.0831944 13.1145835,22.6831944" id="Fill-5" fill="#EC6E1E"></path>
                <path d="M36.5920988,22.6831944 C36.5920988,27.5818056 32.6475728,31.5554167 27.7817379,31.5554167 C22.9159031,31.5554167 18.9727563,27.5818056 18.9727563,22.6831944 C18.9727563,17.7831944 22.9159031,13.8109722 27.7817379,13.8109722 C32.6475728,13.8109722 36.5920988,17.7831944 36.5920988,22.6831944 M41.0234841,22.6831944 C41.0234841,15.3179167 35.0942823,9.34847222 27.7817379,9.34847222 C20.4691936,9.34847222 14.5399917,15.3179167 14.5399917,22.6831944 C14.5399917,30.0484722 20.4691936,36.0179167 27.7817379,36.0179167 C35.0942823,36.0179167 41.0234841,30.0484722 41.0234841,22.6831944" id="Fill-7" fill="#FEFEFE"></path>
                <g id="Group-11">
                    <mask id="mask-2" fill="white">
                        <use xlink:href="#path-1"></use>
                    </mask>
                    <g id="Clip-10"></g>
                    <path d="M46.950893,49.9998611 L36.9985505,40.41375 L6.29744954,40.41375 C1.31714067,40.41375 0,36.2651389 0,34.0706944 L0,12.8220833 C0,7.80541667 4.11968502,6.48041667 6.29744954,6.48041667 L16.2566881,6.48041667 L18.4882416,0.640138889 L35.0621468,0.640138889 L37.2950795,6.48041667 L47.2529388,6.48041667 C52.2346269,6.48041667 53.5517676,10.6290278 53.5517676,12.8220833 L53.5517676,34.0706944 C53.5517676,39.08875 49.4320826,40.41375 47.2529388,40.41375 L46.950893,40.41375 L46.950893,49.9998611 Z M6.29744954,8.38180556 C5.85058716,8.38597222 1.8895107,8.54013889 1.8895107,12.8220833 L1.8895107,34.0706944 C1.89226911,34.5220833 2.04536086,38.5123611 6.29744954,38.5123611 L37.7557339,38.5123611 L45.0613823,45.5498611 L45.0613823,38.5123611 L47.2529388,38.5123611 C47.7011804,38.5081944 51.6636361,38.3526389 51.6636361,34.0706944 L51.6636361,12.8220833 C51.6594985,12.3720833 51.5050275,8.38180556 47.2529388,8.38180556 L35.9972477,8.38180556 L33.7656942,2.54152778 L19.7860734,2.54152778 L17.5545199,8.38180556 L6.29744954,8.38180556 Z" id="Fill-9" fill="#FEFEFE" mask="url(#mask-2)"></path>
                </g>
                <path d="M79.6140508,33.5338889 C83.2813566,33.5338889 86.279748,32.0713889 88.6078459,29.1505556 L93.3909284,34.1116667 C89.5953566,38.4158333 85.1225951,40.5658333 79.972644,40.5658333 C74.8213138,40.5658333 70.5802587,38.9283333 67.2480997,35.6519444 C63.9159407,32.3769444 62.2498612,28.2422222 62.2498612,23.2491667 C62.2498612,18.2561111 63.9476624,14.0894444 67.344644,10.7491667 C70.7402465,7.40888889 74.8944116,5.73805556 79.8057602,5.73805556 C85.2894789,5.73805556 89.8822312,7.84222222 93.5812587,12.0491667 L88.9416135,17.3477778 C86.5817939,14.3936111 83.6482251,12.9158333 80.1395278,12.9158333 C77.3342251,12.9158333 74.9330294,13.8394444 72.9414575,15.6852778 C70.9471272,17.5325 69.9513413,20.0213889 69.9513413,23.1519444 C69.9513413,26.2838889 70.891959,28.7963889 72.7731945,30.6908333 C74.65443,32.5852778 76.9356349,33.5338889 79.6140508,33.5338889" id="Fill-12" fill="#FEFEFE"></path>
                <path d="M111.376864,16.5288889 L107.16753,26.3080556 L115.539304,26.3080556 L111.376864,16.5288889 Z M121.469885,40.1816667 L118.359778,32.9066667 L104.344298,32.9066667 L101.23557,40.1816667 L93.2954875,40.1816667 L107.74128,6.50944444 L114.964176,6.50944444 L129.411347,40.1816667 L121.469885,40.1816667 Z" id="Fill-14" fill="#FEFEFE"></path>
                <polygon id="Fill-16" fill="#FEFEFE" points="161.603368 18.9858333 152.56268 37.3872222 148.114744 37.3872222 139.120949 18.9858333 139.120949 40.1816667 131.659451 40.1816667 131.659451 6.50944444 141.751093 6.50944444 150.362848 25.0066667 159.020117 6.50944444 169.066246 6.50944444 169.066246 40.1816667 161.603368 40.1816667"></polygon>
                <polygon id="Fill-18" fill="#FEFEFE" points="196.379744 6.50958333 196.379744 13.2054167 179.732741 13.2054167 179.732741 20.1415278 194.705389 20.1415278 194.705389 26.5484722 179.732741 26.5484722 179.732741 33.5345833 196.905221 33.5345833 196.905221 40.1818056 172.271242 40.1818056 172.271242 6.50958333"></polygon>
                <path d="M217.905684,21.6836111 C218.829751,20.8488889 219.293164,19.5238889 219.293164,17.71 C219.293164,15.8961111 218.81458,14.6502778 217.857412,13.9766667 C216.900244,13.3016667 215.227268,12.9641667 212.834348,12.9641667 L207.238913,12.9641667 L207.238913,22.9363889 L212.69091,22.9363889 C215.242439,22.9363889 216.980238,22.5197222 217.905684,21.6836111 M226.899479,17.685 C226.899479,23.0808333 224.776883,26.5655556 220.535828,28.1377778 L229.002767,40.1808333 L219.818641,40.1808333 L212.404036,29.4391667 L207.238913,29.4391667 L207.238913,40.1808333 L199.776036,40.1808333 L199.776036,6.51 L212.452308,6.51 C217.649152,6.51 221.356455,7.39333333 223.574216,9.15861111 C225.790598,10.9252778 226.899479,13.7669444 226.899479,17.685" id="Fill-20" fill="#FEFEFE"></path>
                <path d="M247.610309,16.5288889 L243.400976,26.3080556 L251.77275,26.3080556 L247.610309,16.5288889 Z M257.703331,40.1816667 L254.593224,32.9066667 L240.577744,32.9066667 L237.469016,40.1816667 L229.528933,40.1816667 L243.974725,6.50944444 L251.199001,6.50944444 L265.644793,40.1816667 L257.703331,40.1816667 Z" id="Fill-22" fill="#FEFEFE"></path>
                <path d="M279.563728,12.9644444 L279.563728,6.51027778 L296.97619,6.51027778 L296.97619,28.4741667 C296.97619,32.4894444 295.947303,35.4922222 293.890909,37.4838889 C291.833135,39.4741667 289.193337,40.47 285.972894,40.47 C281.95527,40.47 278.446572,38.9130556 275.450939,35.7977778 L279.323747,30.4019444 C281.333248,32.5852778 283.439294,33.6783333 285.639126,33.6783333 C286.691459,33.6783333 287.59208,33.2686111 288.340988,32.4491667 C289.089897,31.6311111 289.46642,30.4019444 289.46642,28.7644444 L289.46642,12.9644444 L279.563728,12.9644444 Z" id="Fill-24" fill="#FEFEFE"></path>
                <path d="M314.340242,16.5288889 L310.130909,26.3080556 L318.502682,26.3080556 L314.340242,16.5288889 Z M324.433263,40.1816667 L321.323156,32.9066667 L307.307676,32.9066667 L304.198948,40.1816667 L296.258866,40.1816667 L310.704658,6.50944444 L317.928933,6.50944444 L332.374725,40.1816667 L324.433263,40.1816667 Z" id="Fill-26" fill="#FEFEFE"></path>
                <path d="M342.324309,33.8227778 L347.442539,33.8227778 C349.578927,33.8227778 351.181563,33.5575 352.249068,33.0283333 C353.317951,32.4977778 353.851704,31.4547222 353.851704,29.8963889 C353.851704,28.3394444 353.28485,27.3116667 352.153902,26.8144444 C351.021575,26.3158333 349.212058,26.0672222 346.723973,26.0672222 L342.324309,26.0672222 L342.324309,33.8227778 Z M342.324309,20.1422222 L345.863349,20.1422222 C347.936294,20.1422222 349.475487,19.9172222 350.479548,19.4672222 C351.484988,19.0186111 351.987019,18.0463889 351.987019,16.5533333 C351.987019,15.0602778 351.523606,14.0727778 350.599539,13.5908333 C349.674092,13.1088889 348.111453,12.8686111 345.911621,12.8686111 L342.324309,12.8686111 L342.324309,20.1422222 Z M349.498933,40.1811111 L334.861431,40.1811111 L334.861431,6.50888889 L347.871471,6.50888889 C350.136126,6.50888889 352.08908,6.7825 353.731713,7.32833333 C355.374346,7.87416667 356.610113,8.61305556 357.440395,9.545 C358.938211,11.2783333 359.688499,13.2380556 359.688499,15.4213889 C359.688499,18.0547222 358.843046,20.0144444 357.152141,21.2977778 C356.578392,21.7477778 356.179802,22.0283333 355.95775,22.1408333 C355.734318,22.2533333 355.335728,22.4380556 354.761979,22.695 C356.834924,23.145 358.484453,24.0838889 359.711945,25.5130556 C360.939438,26.9422222 361.553184,28.7158333 361.553184,30.8366667 C361.553184,33.1797222 360.756003,35.2505556 359.161643,37.0491667 C357.312129,39.1380556 354.090306,40.1811111 349.498933,40.1811111 L349.498933,40.1811111 Z" id="Fill-28" fill="#FEFEFE"></path>
                <path d="M371.456013,33.8227778 L376.574242,33.8227778 C378.710631,33.8227778 380.313267,33.5575 381.380771,33.0283333 C382.449655,32.4977778 382.983407,31.4547222 382.983407,29.8963889 C382.983407,28.3394444 382.416554,27.3116667 381.285606,26.8144444 C380.154658,26.3158333 378.343762,26.0672222 375.855676,26.0672222 L371.456013,26.0672222 L371.456013,33.8227778 Z M371.456013,20.1422222 L374.995053,20.1422222 C377.067998,20.1422222 378.60719,19.9172222 379.611251,19.4672222 C380.616692,19.0186111 381.118722,18.0463889 381.118722,16.5533333 C381.118722,15.0602778 380.656689,14.0727778 379.731242,13.5908333 C378.805796,13.1088889 377.243157,12.8686111 375.044704,12.8686111 L371.456013,12.8686111 L371.456013,20.1422222 Z M378.630637,40.1811111 L363.993135,40.1811111 L363.993135,6.50888889 L377.004554,6.50888889 C379.269209,6.50888889 381.222163,6.7825 382.863417,7.32833333 C384.507429,7.87416667 385.741817,8.61305556 386.572098,9.545 C388.069915,11.2783333 388.820202,13.2380556 388.820202,15.4213889 C388.820202,18.0547222 387.97475,20.0144444 386.285224,21.2977778 C385.711475,21.7477778 385.311505,22.0283333 385.089453,22.1408333 C384.866022,22.2533333 384.467432,22.4380556 383.893683,22.695 C385.966628,23.145 387.616157,24.0838889 388.843649,25.5130556 C390.071141,26.9422222 390.684887,28.7158333 390.684887,30.8366667 C390.684887,33.1797222 389.887707,35.2505556 388.293346,37.0491667 C386.443832,39.1380556 383.223389,40.1811111 378.630637,40.1811111 L378.630637,40.1811111 Z" id="Fill-30" fill="#FEFEFE"></path>
                <polygon id="Fill-32" fill="#FEFEFE" points="417.280923 6.50958333 417.280923 13.2054167 400.635299 13.2054167 400.635299 20.1415278 415.606568 20.1415278 415.606568 26.5484722 400.635299 26.5484722 400.635299 33.5345833 417.807779 33.5345833 417.807779 40.1818056 393.172421 40.1818056 393.172421 6.50958333"></polygon>
                <g id="Group-36" transform="translate(420.657492, 5.555556)">
                    <mask id="mask-4" fill="white">
                        <use xlink:href="#path-3"></use>
                    </mask>
                    <g id="Clip-35"></g>
                    <path d="M18.1506122,16.1280556 C19.0746795,15.2933333 19.5380924,13.9683333 19.5380924,12.1544444 C19.5380924,10.3405556 19.0595083,9.09472222 18.1023401,8.42111111 C17.1451719,7.74611111 15.4721963,7.40861111 13.0792758,7.40861111 L7.48384159,7.40861111 L7.48384159,17.3808333 L12.9372177,17.3808333 C15.4873676,17.3808333 17.2251657,16.9641667 18.1506122,16.1280556 M27.1444073,12.1294444 C27.1444073,17.5252778 25.021811,21.01 20.780756,22.5822222 L29.249074,34.6252778 L20.0635694,34.6252778 L12.6503431,23.8836111 L7.48384159,23.8836111 L7.48384159,34.6252778 L0.0195847095,34.6252778 L0.0195847095,0.954444444 L12.6972361,0.954444444 C17.8940801,0.954444444 21.6027621,1.83777778 23.8177651,3.60305556 C26.0355266,5.36972222 27.1444073,8.21138889 27.1444073,12.1294444" id="Fill-34" fill="#FEFEFE" mask="url(#mask-4)"></path>
                </g>
            </g>
        </g>
    </g>
</svg>